<svg id="Layer_1" data-name="Layer 1" xmlns="http://www.w3.org/2000/svg" viewBox="0 0 663.03 82.35"><defs><style>.cls-1{fill:#39b54a;}.cls-2{fill:#006838;}.cls-3{fill:#939598;}.cls-4{fill:#27aae1;}.cls-5{fill:#ffde17;}</style></defs><title>POS_Horizontal_2_Full_Color_CMYK</title><path class="cls-1" d="M221.06,40.86c0,13-7.42,22.4-20,22.4s-20-9.42-20-22.4,7.42-22.39,20-22.39S221.06,27.76,221.06,40.86Zm-4.3,0c0-12.1-6.43-19.27-15.72-19.27s-15.66,7.17-15.66,19.27S191.81,60.14,201,60.14,216.76,52.9,216.76,40.86Z"/><path class="cls-1" d="M251.82,62.39H248V56l-1.81,3.68a12.41,12.41,0,0,1-9.24,3.56c-6.73,0-10.73-3.81-11.47-9a43.08,43.08,0,0,1-.25-5.55V29.38h3.86V47.79a46.91,46.91,0,0,0,.25,4.93c.5,4.36,3.37,7.42,8.49,7.42,5.49,0,10.17-4,10.17-14.35V29.38h3.86Z"/><path class="cls-1" d="M263.74,53.34c0,1.37,0,2.06.06,2.93.25,3.18,1.63,4,6.05,3.43v2.87a21.48,21.48,0,0,1-4,.32c-3.68,0-5.61-1.63-5.92-5.25-.07-1.12-.07-2.37-.07-4.24V32.63h-4.24v-3h4.24V20.38h3.87v9.25H270v3h-6.3Z"/><path class="cls-1" d="M301.11,62.39h-3.87V56.27l-2.18,3.62c-2.31,2.31-5.55,3.37-9.36,3.37-9.23,0-14.72-7.18-14.72-17,0-12,7.36-17.78,15.72-17.78a12.23,12.23,0,0,1,8.48,3l2.06,3.55V20.55h3.87Zm-3.87-15.73V44.17c0-9.36-5.67-12.54-10.54-12.54-6.61,0-11.48,5.24-11.48,14.16,0,7.92,3.81,14.41,11,14.41C292.13,60.2,297.24,56.65,297.24,46.66Z"/><path class="cls-1" d="M337.42,45.92c0,9.66-5.55,17.34-16,17.34s-16-7.68-16-17.34,5.56-17.41,16-17.41S337.42,36.18,337.42,45.92Zm-4.24,0c0-9-4.93-14.29-11.79-14.29s-11.79,5.3-11.79,14.29,4.93,14.28,11.79,14.28S333.18,54.9,333.18,45.92Z"/><path class="cls-1" d="M370.92,45.92c0,9.66-5.55,17.34-16,17.34s-16-7.68-16-17.34,5.55-17.41,16-17.41S370.92,36.18,370.92,45.92Zm-4.24,0c0-9-4.93-14.29-11.79-14.29s-11.79,5.3-11.79,14.29S348,60.2,354.89,60.2,366.68,54.9,366.68,45.92Z"/><path class="cls-1" d="M388.89,28.89v3.05c-5.74-.43-10,3.12-10,11.92V62.39H375v-33h3.87v6l2.37-4.24A8,8,0,0,1,387,28.64,6.22,6.22,0,0,1,388.89,28.89Z"/><path class="cls-2" d="M428,32.63H416.72c-.5-3.56-2.37-5.93-6.05-5.93-2.56,0-4.31,1.25-4.31,3.87s2,4.43,9.11,6.11c9.48,2.25,13.35,7,13.35,13.6,0,8.61-8.24,13-16.91,13-10.91,0-18.28-4.37-19-14h11.23c.75,4.06,4.05,5.8,7.42,5.8,3.12,0,5.49-1.62,5.49-4s-1.62-4.18-6.92-5.49c-9.8-2.43-15.54-5.49-15.54-14.1,0-8.29,7.74-13,16.28-13C422.27,18.47,427,24.64,428,32.63Z"/><path class="cls-2" d="M464.88,45.73c0,10.67-7,17.53-17.9,17.53s-17.91-6.86-17.91-17.53,7-17.53,17.91-17.53S464.88,35,464.88,45.73Zm-11.48,0c0-6.68-2.43-9.92-6.42-9.92s-6.43,3.24-6.43,9.92S443,55.65,447,55.65,453.4,52.34,453.4,45.73Z"/><path class="cls-2" d="M478.42,50.41a18.59,18.59,0,0,0,.13,3.05c.18,1.31.74,1.75,3.68,1.63V62.7c-2.06.19-4.06.31-6.55.31-5.18,0-8.11-2.06-8.36-6.49-.13-1.75-.13-3.43-.13-5.93V16.53h11.23Z"/><path class="cls-2" d="M517.35,62.39H506.12V56.77l-3,4.55a13.88,13.88,0,0,1-7.49,1.94c-6.86,0-11-3.87-11.79-8.42a43.91,43.91,0,0,1-.31-6.3V29.07h11.23V46a44,44,0,0,0,.25,4.55c.37,3.19,1.87,5.06,5.42,5.06s5.68-3.31,5.68-7.74V29.07h11.23Z"/><path class="cls-2" d="M535.26,48.6c0,1.12,0,2.37.06,3.24.25,3.37,1.31,4.12,6.61,3.87v7a38.19,38.19,0,0,1-6.61.56c-8.3,0-10.79-2.56-11.17-7.68-.12-1.93-.12-3.49-.12-5.36V36.31h-5.31v-7H524V20.71h11.23v8.61h7.36v7h-7.36Z"/><path class="cls-2" d="M555.84,21c0,3.37-2.3,5.5-5.8,5.5s-5.8-2.13-5.8-5.5,2.31-5.48,5.8-5.48S555.84,17.66,555.84,21ZM544.43,62.39V29.07h11.23V62.39Z"/><path class="cls-2" d="M594,45.73c0,10.67-7,17.53-17.91,17.53s-17.9-6.86-17.9-17.53,7-17.53,17.9-17.53S594,35,594,45.73Zm-11.48,0c0-6.68-2.44-9.92-6.43-9.92s-6.42,3.24-6.42,9.92,2.43,9.92,6.42,9.92S582.55,52.34,582.55,45.73Z"/><path class="cls-2" d="M630.4,43.55V62.39H619.17v-17c0-1.06,0-2.87-.13-4.56-.25-3.18-2-5-5.36-5s-5.87,3.31-5.87,10.85V62.39H596.59V29.07h11.22v5.18l3-4.12a14,14,0,0,1,7.49-1.93c6.86,0,10.91,3.24,11.79,9.05A43.74,43.74,0,0,1,630.4,43.55Z"/><path class="cls-2" d="M662.15,38.8h-11c-.5-2.3-1.62-3.61-3.62-3.61a2.46,2.46,0,0,0-2.68,2.43c0,1.87,1.5,3.12,7.86,4.68C658.72,43.8,663,46.42,663,52.84c0,7.11-6.68,10.42-14.72,10.42-9,0-15.23-3.74-16.1-11.23h11a5.22,5.22,0,0,0,5,4.24c2,0,3.56-.81,3.56-2.56,0-2.12-2.12-3.3-8-4.67-6.36-1.5-10.17-4.43-10.17-10.11,0-6.61,5.74-10.73,14.6-10.73C656.48,28.2,661.28,32.75,662.15,38.8Z"/><path class="cls-3" d="M235.53,4.33a3.82,3.82,0,0,1-3.52,4,13.93,13.93,0,0,1-1.89.09h-1.91v4.92H225.6V.26h4.52a13.83,13.83,0,0,1,1.89.1A3.75,3.75,0,0,1,235.53,4.33Zm-2.74,0a1.73,1.73,0,0,0-1.55-1.95,9.21,9.21,0,0,0-1.16,0h-1.87v4h1.87a11.61,11.61,0,0,0,1.16,0A1.74,1.74,0,0,0,232.79,4.33Z"/><path class="cls-3" d="M249.77,13.31h-2.86a11.43,11.43,0,0,1-.64-2.91c-.17-1.4-.7-2.25-1.76-2.33-.36,0-.68,0-1,0H242v5.26h-2.61V.26h4.76a13.83,13.83,0,0,1,1.89.1c1.89.23,3.42,1.21,3.42,3.46A3.16,3.16,0,0,1,246.89,7c1.29.49,1.78,1.56,1.93,3A6.67,6.67,0,0,0,249.77,13.31Zm-6-7.2c.46,0,.78,0,1.06,0,1-.1,1.87-.61,1.87-1.87A1.69,1.69,0,0,0,245,2.36a10.38,10.38,0,0,0-1.09,0H242v3.8Z"/><path class="cls-3" d="M265.89,6.79c0,4.08-2.44,6.78-6.45,6.78S253,10.87,253,6.79,255.42,0,259.44,0,265.89,2.68,265.89,6.79Zm-2.74,0c0-3.07-1.4-4.84-3.71-4.84s-3.72,1.77-3.72,4.84,1.4,4.84,3.72,4.84S263.15,9.83,263.15,6.79Z"/><path class="cls-3" d="M272.77,5.75h6V7.81h-6v5.5h-2.61V.26h9.23V2.31h-6.62Z"/><path class="cls-3" d="M292.77,13.31h-9.41V.26h9.23V2.31H286V5.75h6.14V7.81H286v3.44h6.8Z"/><path class="cls-3" d="M306.14,4.1h-2.67A2.13,2.13,0,0,0,301.22,2c-1,0-1.83.49-1.83,1.55s.7,1.64,2.78,2.13c2.87.67,4.16,2,4.16,4.09,0,2.46-2.25,3.85-4.82,3.85-3.12,0-5.16-1.38-5.41-4.12h2.67a2.59,2.59,0,0,0,2.7,2.18c1.19,0,2.14-.65,2.14-1.65s-.68-1.74-2.61-2.19c-2.67-.64-4.35-1.57-4.35-4S298.82,0,301.32,0C304.44,0,305.86,1.78,306.14,4.1Z"/><path class="cls-3" d="M319.62,4.1H317A2.13,2.13,0,0,0,314.7,2c-1,0-1.83.49-1.83,1.55s.7,1.64,2.78,2.13c2.87.67,4.16,2,4.16,4.09,0,2.46-2.25,3.85-4.82,3.85-3.12,0-5.16-1.38-5.41-4.12h2.67a2.59,2.59,0,0,0,2.7,2.18c1.19,0,2.14-.65,2.14-1.65s-.68-1.74-2.61-2.19c-2.67-.64-4.35-1.57-4.35-4S312.3,0,314.8,0C317.92,0,319.34,1.78,319.62,4.1Z"/><path class="cls-3" d="M324,13.31V.26h2.61V13.31Z"/><path class="cls-3" d="M343.63,6.79c0,4.08-2.44,6.78-6.45,6.78s-6.45-2.7-6.45-6.78S333.15,0,337.18,0,343.63,2.68,343.63,6.79Zm-2.74,0c0-3.07-1.4-4.84-3.71-4.84s-3.72,1.77-3.72,4.84,1.4,4.84,3.72,4.84S340.89,9.83,340.89,6.79Z"/><path class="cls-3" d="M355.78,13.31,350.42,3.4c.07,1.42.09,2.91.09,4v5.9H347.9V.26h3.46l5.48,10.1c-.07-1.4-.09-3-.09-4.1v-6h2.59l0,13.05Z"/><path class="cls-3" d="M366.94,9.38l-1.31,3.93h-2.78l4.71-13h3.27l4.62,13.05h-2.84l-1.29-3.93Zm.66-2.06h3.06L369.15,2.5Z"/><path class="cls-3" d="M388.43,13.31H379V.26h2.61V11.14h6.8Z"/><path class="cls-1" d="M151,39q-9.48-2.37-19.06-4a264,264,0,0,0-44.15,5.14q10.36,2.34,20.35,5.46A252.86,252.86,0,0,1,151,39Z"/><path class="cls-2" d="M134.25,55.16a237.36,237.36,0,0,1,35.19-10.85q-7.26-2.37-14.61-4.31a252.78,252.78,0,0,0-42.92,6.77q4.38,1.44,8.67,3Q127.53,52.31,134.25,55.16Z"/><path class="cls-1" d="M98.89,31.23A274.28,274.28,0,0,0,43.39,34c6.17.31,12.28.85,18.32,1.58A271.8,271.8,0,0,1,98.89,31.23Z"/><path class="cls-2" d="M126.32,34.05q-9.37-1.42-18.81-2.21A270.05,270.05,0,0,0,65.4,36q9.5,1.29,18.74,3.24A264,264,0,0,1,126.32,34.05Z"/><path class="cls-2" d="M37.51,35a257.92,257.92,0,0,1,93.74,21.47q-9.56,3.78-18.42,8.27A245.69,245.69,0,0,0,19.09,38.86Q28.24,36.6,37.51,35Z"/><path class="cls-4" d="M15.28,39.8A243.3,243.3,0,0,1,110,66.4,212.08,212.08,0,0,0,85,82.35c-23.27-17.19-52-30.72-85-38.07Q7.59,41.81,15.28,39.8Z"/><path class="cls-5" d="M84.68,4.44C62.82,4.36,45.57,17.12,42,32.05a275.79,275.79,0,0,1,85.36.16C123.74,17.27,106.55,4.44,84.68,4.44Z"/></svg>