<?xml version="1.0" standalone="no"?>
<!DOCTYPE svg PUBLIC "-//W3C//DTD SVG 20010904//EN"
 "http://www.w3.org/TR/2001/REC-SVG-20010904/DTD/svg10.dtd">
<svg version="1.0" xmlns="http://www.w3.org/2000/svg"
 width="1240.000000pt" height="1240.000000pt" viewBox="0 0 1240.000000 1240.000000"
 preserveAspectRatio="xMidYMid meet">
<metadata>
Created by potrace 1.11, written by Peter Selinger 2001-2013
</metadata>
<g transform="translate(0.000000,1240.000000) scale(0.100000,-0.100000)"
fill="#000000" stroke="none">
<path d="M6268 8956 c-1 -2 -82 -6 -178 -10 -173 -5 -247 -11 -305 -20 -16 -3
-59 -8 -95 -12 -36 -3 -69 -9 -73 -11 -5 -3 -25 -7 -45 -9 -21 -2 -48 -6 -62
-10 -14 -4 -34 -8 -45 -9 -28 -3 -74 -13 -112 -24 -17 -5 -34 -7 -37 -3 -3 3
-6 0 -6 -7 0 -7 -4 -10 -8 -7 -4 2 -39 -4 -77 -15 -39 -11 -80 -22 -92 -25
-45 -9 -258 -87 -261 -95 -2 -5 -8 -7 -12 -4 -8 5 -148 -52 -160 -65 -3 -3
-12 -6 -20 -8 -19 -4 -199 -93 -260 -128 -115 -66 -240 -148 -240 -156 0 -5
-4 -6 -10 -3 -5 3 -10 1 -10 -4 0 -6 -6 -11 -14 -11 -8 0 -16 -3 -18 -8 -1 -4
-36 -31 -75 -61 -40 -29 -73 -57 -73 -62 0 -5 -5 -9 -10 -9 -6 0 -23 -11 -38
-24 -15 -14 -37 -33 -49 -44 -13 -10 -19 -23 -15 -27 4 -5 2 -5 -4 -2 -17 10
-212 -195 -311 -328 -29 -39 -57 -76 -63 -82 -6 -7 -20 -30 -32 -50 -12 -21
-25 -40 -28 -43 -17 -13 -160 -292 -160 -310 0 -6 -4 -18 -10 -28 -10 -17 -31
-68 -36 -87 -1 -5 -11 -39 -22 -74 l-21 -64 57 6 c31 4 68 9 82 12 14 3 48 8
75 10 28 3 61 7 75 10 14 2 50 6 80 10 30 4 66 8 80 10 55 8 108 14 166 20 33
3 71 7 85 10 24 4 110 13 184 20 86 8 153 14 220 20 39 3 88 8 110 10 22 2 76
7 120 10 44 3 99 8 123 10 23 2 89 7 145 10 56 3 136 8 177 11 353 22 603 27
1165 27 497 0 695 -3 975 -18 264 -13 376 -20 490 -30 30 -2 91 -7 135 -10 44
-3 96 -8 115 -10 19 -2 71 -7 115 -10 44 -4 94 -8 110 -10 17 -3 62 -7 100
-11 39 -3 81 -7 95 -9 14 -1 57 -5 95 -9 39 -4 81 -9 95 -11 14 -2 48 -7 75
-10 28 -3 66 -7 85 -10 19 -2 58 -7 85 -10 28 -3 61 -7 75 -10 28 -5 109 -15
155 -20 17 -2 57 -8 90 -14 33 -5 81 -12 107 -14 25 -3 50 -7 55 -10 4 -2 36
-8 70 -11 35 -4 70 -9 79 -13 12 -5 15 -2 11 13 -3 10 -11 39 -17 64 -7 25
-17 51 -22 58 -6 6 -8 12 -4 12 7 0 -35 113 -76 203 -17 37 -36 67 -41 67 -6
0 -8 3 -4 6 17 17 -164 299 -275 430 -39 45 -121 136 -154 168 -120 120 -298
269 -308 259 -3 -3 -6 -1 -6 5 0 7 -26 29 -57 49 -32 21 -60 41 -63 44 -8 10
-222 140 -234 142 -6 1 -13 4 -16 7 -22 22 -256 135 -394 190 -142 56 -393
135 -496 155 -8 2 -33 8 -55 13 -40 11 -103 23 -140 27 -11 1 -31 5 -45 8 -14
4 -43 9 -65 12 -22 4 -51 8 -65 10 -14 2 -52 7 -85 10 -33 3 -76 7 -95 10 -19
3 -100 7 -180 11 -80 3 -150 7 -157 9 -6 2 -13 2 -15 1z"/>
<path d="M5786 7083 c-1 -2 -92 -5 -202 -9 -388 -12 -624 -24 -932 -49 -34 -3
-93 -8 -130 -10 -37 -3 -87 -7 -112 -10 -25 -3 -76 -7 -115 -11 -38 -3 -86 -7
-105 -10 -19 -2 -60 -6 -90 -9 -30 -2 -73 -7 -95 -10 -22 -3 -65 -7 -95 -10
-30 -3 -71 -8 -90 -11 -19 -3 -53 -7 -75 -9 -37 -3 -95 -10 -155 -20 -14 -3
-47 -7 -75 -10 -27 -4 -61 -8 -75 -10 -14 -2 -47 -6 -75 -10 -27 -4 -63 -7
-78 -7 -50 0 -19 -11 40 -14 71 -3 192 -11 293 -19 41 -3 108 -8 148 -10 39
-2 89 -7 110 -10 20 -2 73 -8 117 -11 44 -3 96 -7 115 -9 94 -9 149 -15 195
-20 73 -8 124 -14 175 -19 25 -2 50 -5 55 -6 6 -1 12 -2 15 0 3 1 16 3 30 5
14 2 39 6 55 9 49 10 109 19 128 20 9 0 17 3 17 6 0 3 10 6 23 7 28 2 92 11
92 13 0 1 11 3 25 5 38 4 111 15 145 21 17 3 41 7 55 9 14 2 43 6 65 10 85 13
111 17 145 20 19 2 46 7 60 10 14 3 48 7 75 10 28 3 68 8 90 11 22 4 51 7 65
9 27 3 112 13 175 22 38 5 66 8 153 17 70 7 157 17 202 22 25 3 70 7 100 9 30
2 78 7 105 10 28 3 77 7 110 10 33 2 94 7 135 10 41 3 102 8 135 10 287 17
286 17 274 30 -11 11 -1212 28 -1223 18z"/>
<path d="M7020 7060 c0 -8 97 -7 104 1 3 3 -20 5 -50 5 -30 1 -54 -2 -54 -6z"/>
<path d="M7677 7014 c-1 -1 -85 -5 -187 -8 -102 -4 -214 -9 -250 -11 -36 -2
-112 -7 -170 -10 -161 -9 -370 -24 -430 -30 -19 -1 -71 -6 -115 -10 -44 -3
-98 -8 -120 -10 -22 -2 -69 -7 -105 -10 -36 -4 -76 -8 -90 -10 -14 -2 -56 -7
-95 -10 -96 -10 -112 -12 -175 -19 -88 -11 -513 -67 -540 -71 -14 -2 -43 -7
-65 -10 -22 -4 -80 -13 -130 -20 -49 -8 -108 -17 -130 -20 -22 -4 -77 -13
-123 -21 -45 -8 -91 -16 -102 -17 -10 -1 -17 -3 -14 -6 5 -6 9 -6 86 -15 31
-4 66 -9 79 -11 13 -3 40 -7 59 -10 115 -15 360 -54 485 -77 61 -11 124 -22
140 -24 17 -2 50 -8 75 -13 25 -5 61 -12 80 -15 19 -3 100 -19 178 -35 131
-27 166 -29 212 -16 98 29 800 146 1205 201 22 3 51 7 65 9 14 2 50 7 80 10
30 3 62 8 70 10 8 2 47 7 85 10 39 4 84 8 100 11 17 2 55 6 85 9 30 3 71 8 90
10 19 3 64 7 100 11 36 3 82 7 102 9 20 2 72 7 115 10 43 3 94 8 113 10 19 2
85 7 145 11 61 3 121 8 135 10 14 1 86 6 160 10 74 3 155 8 180 9 25 2 59 4
75 5 28 2 27 3 -10 10 -22 5 -62 11 -90 15 -27 3 -57 8 -65 10 -8 2 -40 7 -70
10 -30 3 -66 8 -80 10 -14 2 -50 7 -80 10 -30 4 -66 8 -80 10 -14 2 -54 7 -90
10 -36 3 -76 8 -90 10 -25 4 -79 10 -183 20 -28 3 -68 7 -87 10 -19 2 -66 7
-105 10 -38 4 -88 9 -110 12 -39 5 -313 12 -318 7z"/>
<path d="M2720 6784 c-36 -7 -78 -15 -95 -18 -16 -3 -43 -8 -60 -11 -34 -7
-377 -74 -415 -81 -14 -3 -53 -11 -88 -19 -34 -8 -77 -17 -95 -20 -17 -3 -99
-22 -182 -41 -82 -19 -161 -37 -175 -40 -31 -6 -54 -12 -100 -23 -30 -8 -31
-9 -10 -11 14 -1 32 -3 40 -4 8 -2 64 -6 123 -10 60 -4 125 -9 145 -11 20 -3
62 -7 92 -10 130 -12 235 -23 290 -30 19 -3 60 -7 90 -10 30 -3 69 -8 85 -10
17 -2 73 -9 125 -15 52 -6 106 -13 120 -16 14 -2 61 -9 105 -14 112 -16 120
-17 305 -46 91 -15 172 -27 180 -29 8 -1 35 -5 60 -9 25 -4 56 -9 70 -12 14
-2 36 -6 50 -9 14 -3 54 -10 90 -16 36 -5 85 -15 110 -20 25 -6 79 -17 120
-24 103 -19 122 -23 225 -45 306 -64 581 -128 765 -176 74 -20 143 -38 154
-40 10 -2 44 -11 75 -20 31 -9 65 -18 75 -20 69 -13 696 -201 879 -263 48 -16
87 -27 87 -24 0 3 6 1 13 -5 6 -5 28 -14 47 -20 65 -19 413 -143 615 -220 150
-57 437 -171 510 -202 28 -12 59 -25 70 -30 64 -26 98 -41 165 -70 41 -18 98
-43 125 -56 28 -12 91 -40 140 -62 97 -43 225 -103 375 -176 52 -25 100 -46
107 -46 6 0 13 -3 15 -7 2 -5 23 -18 48 -29 l45 -21 80 39 c72 35 445 209 520
243 17 7 50 22 75 33 138 62 405 172 416 172 8 0 14 5 14 10 0 6 3 9 8 8 11
-4 202 74 202 82 0 4 -10 10 -23 14 -13 3 -45 15 -73 28 -27 12 -51 23 -54 23
-3 1 -23 9 -45 19 -63 27 -470 189 -580 231 -208 78 -252 94 -315 115 -36 12
-74 26 -85 31 -22 10 -568 191 -625 207 -19 6 -64 19 -100 30 -261 80 -757
220 -840 237 -8 2 -78 19 -155 39 -77 19 -151 37 -165 40 -54 12 -109 24 -200
45 -164 38 -410 90 -560 118 -14 2 -70 13 -125 24 -55 11 -115 22 -134 25 -18
3 -43 8 -55 10 -17 3 -216 36 -421 70 -51 8 -78 12 -125 18 -25 3 -54 8 -65
10 -11 2 -45 7 -75 11 -30 3 -66 8 -80 10 -14 3 -47 7 -75 11 -27 3 -59 7 -70
9 -11 1 -47 6 -80 10 -33 3 -70 8 -83 10 -13 2 -53 7 -90 10 -37 4 -78 8 -92
11 -14 2 -56 6 -95 9 -38 4 -86 8 -105 11 -19 3 -60 7 -90 9 -30 3 -77 7 -105
9 -27 3 -86 8 -130 11 -44 4 -96 9 -115 10 -19 2 -82 7 -140 10 -58 4 -123 8
-145 10 -22 2 -107 7 -190 10 -82 4 -175 8 -205 9 -30 1 -84 -3 -120 -10z"/>
<path d="M9537 6794 c-1 -2 -72 -6 -157 -9 -159 -6 -205 -9 -395 -20 -173 -11
-206 -13 -265 -19 -30 -3 -95 -8 -145 -12 -49 -3 -106 -8 -125 -10 -33 -4
-113 -11 -205 -19 -22 -2 -40 -4 -40 -5 0 -1 -20 -3 -45 -6 -25 -2 -61 -6 -80
-8 -19 -2 -62 -7 -95 -10 -33 -4 -71 -8 -85 -11 -14 -2 -52 -7 -85 -10 -63 -7
-81 -9 -155 -19 -25 -4 -63 -9 -85 -12 -22 -3 -65 -9 -95 -14 -49 -8 -79 -13
-170 -24 -62 -8 -116 -17 -132 -22 -9 -3 -32 -7 -50 -8 -18 -2 -46 -6 -63 -9
-16 -3 -50 -9 -75 -12 -25 -4 -54 -9 -65 -12 -11 -2 -36 -6 -55 -9 -19 -2 -42
-6 -50 -9 -8 -2 -37 -7 -65 -11 -27 -3 -53 -8 -56 -10 -4 -2 -24 -6 -45 -10
-22 -3 -70 -12 -108 -20 -109 -23 -105 -29 29 -49 11 -2 20 -4 20 -5 0 -2 9
-4 60 -14 11 -2 27 -6 35 -9 14 -6 55 -16 90 -21 8 -1 25 -6 37 -10 12 -4 31
-9 42 -11 12 -3 30 -7 41 -10 11 -3 28 -7 38 -9 9 -2 37 -9 62 -16 60 -16 82
-21 100 -24 9 -1 21 -6 28 -10 7 -4 16 -5 19 -2 3 3 13 1 22 -4 9 -4 59 -20
111 -34 92 -24 334 -92 435 -122 28 -8 58 -17 68 -19 9 -2 21 -6 25 -9 39 -24
125 -23 210 3 18 5 35 10 37 10 3 1 6 1 8 2 1 0 13 2 27 5 14 2 36 7 50 11 14
3 29 5 34 4 4 -1 14 3 20 9 7 5 15 8 18 5 2 -3 20 0 39 6 19 6 45 12 59 14 14
1 36 6 50 9 14 3 48 10 75 16 28 6 61 13 75 16 14 3 35 6 48 7 12 1 22 4 22 7
0 3 8 6 18 7 23 1 81 10 112 17 14 3 36 8 50 10 29 5 181 33 225 41 17 4 41 8
55 9 14 2 39 6 55 10 17 3 44 8 60 10 17 3 44 7 60 10 17 2 50 8 75 11 25 3
52 8 60 10 8 2 39 7 69 10 30 4 63 9 75 11 19 4 63 11 126 19 14 2 48 6 75 9
28 4 66 9 85 12 57 9 174 23 240 29 25 2 59 6 75 9 61 10 250 30 395 41 36 2
85 7 110 10 25 3 81 8 125 11 44 4 91 7 105 9 14 1 44 3 68 3 73 3 30 26 -65
35 -13 1 -23 5 -23 8 0 3 -6 6 -12 7 -7 0 -29 3 -48 7 -19 4 -42 7 -50 9 -9 1
-21 5 -27 9 -6 4 -24 9 -40 11 -15 2 -73 14 -128 26 -55 12 -111 24 -125 27
-14 2 -34 6 -45 8 -11 2 -20 4 -20 5 0 2 -14 5 -60 13 -16 3 -41 8 -55 11 -26
6 -108 22 -150 30 -14 3 -36 7 -50 11 -26 5 -75 14 -120 20 -14 1 -25 4 -25 5
0 2 -9 4 -20 5 -33 5 -96 16 -119 22 -44 10 -173 22 -179 17z"/>
<path d="M1147 6443 c-5 -4 -12 -8 -15 -8 -4 -1 -32 -7 -62 -15 -30 -8 -58
-13 -62 -12 -5 1 -8 -2 -8 -6 0 -4 -8 -8 -17 -9 -44 -4 -87 -14 -92 -21 -3 -4
-10 -7 -16 -7 -25 0 -156 -38 -161 -46 -3 -5 -9 -7 -13 -5 -4 3 -81 -18 -171
-45 -91 -27 -174 -52 -184 -54 -10 -2 -35 -10 -55 -17 -20 -7 -38 -13 -41 -13
-36 -9 -67 -19 -75 -24 -5 -3 -18 -7 -29 -8 -10 -2 -26 -8 -35 -13 -14 -8 -14
-10 4 -10 11 -1 27 -3 35 -5 8 -2 35 -8 60 -13 64 -15 91 -21 125 -29 17 -4
35 -8 40 -8 6 -1 19 -4 30 -8 11 -3 31 -8 45 -11 35 -7 48 -10 205 -51 77 -20
147 -38 155 -40 8 -2 50 -13 93 -24 42 -12 110 -30 151 -41 41 -11 86 -24 100
-30 15 -5 30 -9 34 -8 4 1 16 -2 27 -6 28 -11 63 -22 115 -36 25 -7 56 -16 70
-21 14 -4 72 -22 130 -39 58 -18 125 -39 150 -47 25 -8 50 -16 55 -17 6 -1 16
-5 23 -9 6 -5 12 -6 12 -3 0 3 16 -2 35 -10 19 -8 35 -11 35 -7 0 5 4 2 8 -4
4 -7 19 -15 32 -17 14 -2 25 -5 25 -5 0 -4 294 -103 308 -104 9 -1 17 -4 17
-8 0 -8 59 -24 73 -21 4 1 7 -3 7 -8 0 -6 6 -10 13 -10 7 0 96 -32 197 -71
102 -39 192 -71 200 -72 8 -1 17 -5 20 -8 3 -3 66 -29 140 -59 74 -29 162 -65
195 -80 33 -14 76 -33 95 -40 19 -7 40 -17 47 -23 7 -5 17 -6 23 -2 5 3 10 2
10 -3 0 -7 99 -54 120 -57 3 -1 34 -15 70 -32 117 -56 180 -82 180 -75 0 4 4
2 8 -5 5 -8 107 -62 132 -68 3 -1 22 -9 42 -19 21 -9 41 -16 44 -15 4 0 10 -4
13 -9 5 -8 155 -84 171 -87 3 0 16 -7 30 -15 77 -43 190 -97 195 -92 3 3 5 0
5 -7 0 -7 5 -9 10 -6 6 3 10 2 10 -3 0 -5 15 -15 33 -22 17 -8 40 -20 50 -28
9 -8 17 -12 17 -8 0 4 12 -1 28 -12 15 -10 42 -25 60 -33 17 -8 32 -18 32 -22
0 -5 6 -7 12 -5 7 3 21 -4 32 -13 10 -10 23 -16 28 -13 4 3 8 1 8 -3 0 -5 30
-24 68 -43 37 -19 69 -37 72 -40 3 -3 35 -21 72 -40 37 -19 68 -38 68 -41 0
-4 11 -10 25 -13 14 -4 25 -11 25 -16 0 -6 9 -10 20 -10 11 0 20 -5 20 -11 0
-5 5 -7 10 -4 6 3 10 2 10 -3 0 -7 30 -26 111 -67 10 -5 19 -13 19 -17 0 -5 5
-8 11 -8 6 0 22 -9 36 -20 14 -11 32 -20 39 -20 8 0 23 -9 34 -20 12 -12 26
-18 32 -14 6 4 8 3 5 -3 -3 -5 11 -18 31 -28 42 -22 66 -37 136 -85 27 -18 55
-33 62 -33 8 0 14 -3 14 -7 0 -4 55 -42 123 -85 67 -44 146 -96 175 -117 28
-21 52 -35 52 -31 0 4 4 3 8 -2 11 -15 151 -115 161 -115 5 0 11 -4 13 -8 3
-8 69 -56 164 -120 19 -12 34 -18 34 -12 0 5 6 10 14 10 8 0 22 10 30 22 9 12
16 19 16 14 0 -4 13 3 29 16 15 12 38 30 51 38 12 8 28 20 34 25 6 6 88 61
181 124 94 63 173 120 177 125 4 6 8 7 8 3 0 -4 6 -3 13 3 6 6 55 39 107 72
52 34 125 81 162 105 37 23 70 43 74 43 4 0 15 10 25 22 11 11 19 18 19 13 0
-4 12 1 28 11 15 10 36 23 47 29 43 23 110 69 117 79 4 6 8 7 8 2 0 -4 12 0
28 10 15 10 101 60 192 112 91 52 174 102 184 111 16 13 18 13 11 1 -7 -12 -4
-11 11 2 10 9 60 37 109 63 50 26 96 52 103 58 9 7 -10 21 -77 54 -50 25 -93
44 -97 43 -4 -1 -10 2 -13 8 -7 11 -221 114 -238 115 -7 0 -13 4 -13 7 0 9
-61 36 -72 32 -5 -1 -8 3 -8 8 0 6 -4 10 -9 10 -6 0 -49 18 -98 41 -48 22
-101 46 -118 54 -16 7 -52 23 -80 35 -49 22 -102 45 -310 135 -88 38 -128 54
-145 60 -3 1 -14 5 -25 10 -11 4 -47 19 -80 32 -33 13 -69 28 -80 33 -11 5
-58 23 -105 41 -47 17 -97 38 -112 46 -16 8 -28 12 -28 9 0 -3 -17 2 -37 11
-40 16 -161 62 -178 67 -14 4 -46 16 -70 26 -26 11 -227 81 -240 84 -5 1 -16
5 -22 9 -7 5 -13 6 -13 2 0 -3 -13 1 -30 10 -16 8 -32 15 -35 15 -7 1 -24 6
-94 30 -35 12 -69 23 -75 24 -6 2 -42 13 -81 25 -38 12 -78 24 -87 26 -9 2
-25 8 -36 14 -10 5 -29 11 -43 13 -13 2 -30 7 -36 11 -7 5 -17 6 -22 3 -5 -4
-11 -2 -13 3 -1 6 -16 13 -33 16 -35 7 -45 10 -65 18 -8 4 -64 20 -125 37 -60
17 -135 38 -165 47 -30 9 -63 16 -72 17 -10 0 -18 5 -18 10 0 5 -3 7 -6 3 -3
-3 -17 -2 -30 3 -14 6 -35 12 -47 15 -12 2 -121 30 -242 61 -221 56 -237 60
-276 69 -11 2 -30 7 -41 11 -11 3 -30 7 -41 9 -12 2 -33 6 -47 10 -14 3 -36 8
-49 11 -13 3 -51 11 -85 19 -33 8 -62 12 -65 10 -2 -3 -10 0 -18 6 -7 6 -13 9
-13 5 0 -3 -10 -2 -23 3 -13 5 -39 12 -58 15 -19 3 -43 8 -54 10 -55 12 -190
39 -252 51 -16 3 -53 11 -83 17 -30 6 -59 11 -63 10 -5 -2 -25 2 -45 7 -20 6
-53 12 -72 15 -19 3 -46 8 -60 11 -14 3 -40 7 -57 10 -18 3 -48 7 -65 10 -18
3 -44 7 -58 10 -14 3 -41 7 -60 10 -19 3 -44 7 -55 9 -20 4 -63 10 -140 21
-22 3 -54 8 -70 11 -17 2 -49 6 -70 9 -22 2 -40 4 -40 5 0 1 -13 3 -30 5 -16
2 -50 7 -75 10 -25 3 -58 8 -75 10 -16 2 -52 7 -80 10 -27 3 -63 8 -80 10 -30
4 -78 10 -165 19 -25 3 -67 8 -95 12 -27 3 -70 7 -95 9 -25 2 -63 6 -85 9 -22
2 -78 8 -125 12 -47 4 -101 8 -120 10 -105 11 -246 15 -253 7z"/>
<path d="M11187 6434 c-1 -1 -45 -5 -97 -9 -52 -3 -111 -8 -130 -10 -19 -2
-66 -6 -105 -9 -125 -11 -194 -18 -300 -30 -22 -3 -69 -8 -105 -11 -36 -3 -72
-8 -80 -10 -8 -2 -46 -7 -85 -10 -38 -4 -72 -8 -75 -10 -3 -1 -36 -6 -73 -10
-37 -3 -76 -8 -85 -10 -9 -1 -39 -6 -67 -9 -27 -4 -75 -11 -105 -16 -30 -5
-77 -12 -105 -15 -27 -3 -72 -9 -100 -15 -27 -5 -70 -12 -95 -15 -25 -3 -52
-8 -60 -10 -8 -2 -33 -6 -55 -10 -22 -3 -66 -10 -97 -16 -32 -5 -70 -12 -85
-15 -123 -21 -543 -104 -653 -129 -8 -1 -78 -17 -155 -34 -77 -17 -155 -35
-173 -40 -18 -5 -35 -10 -37 -10 -11 1 -71 -14 -79 -18 -4 -3 70 -31 165 -63
96 -32 278 -95 404 -140 127 -46 253 -91 280 -101 82 -28 175 -64 468 -181
l278 -110 192 72 c213 81 491 178 697 245 74 24 155 50 180 58 25 9 61 20 80
25 19 6 64 19 100 30 106 33 312 92 350 102 19 4 91 24 160 43 134 38 469 123
510 130 14 3 45 10 70 17 43 12 57 15 110 25 90 17 90 20 -2 48 -47 15 -91 27
-97 27 -6 0 -19 4 -29 10 -30 17 -630 188 -782 223 -55 13 -124 19 -133 11z"/>
</g>
</svg>
